<?xml version="1.0" encoding="UTF-8"?>
<svg width="108px" height="21px" viewBox="0 0 108 21" version="1.1" xmlns="http://www.w3.org/2000/svg" xmlns:xlink="http://www.w3.org/1999/xlink">
    <title>Group</title>
    <g id="Page-1" stroke="none" stroke-width="1" fill="none" fill-rule="evenodd">
        <g id="Group">
            <rect id="Rectangle" fill="#FFFFFF" x="0" y="0" width="108" height="21" rx="3"></rect>
            <g id="SECUREBIN" transform="translate(10.244492, 5.364000)" fill="#252525" fill-rule="nonzero">
                <path d="M7.238,2.534 C7.014,1.428 6.104,0 3.766,0 C1.918,0 0.392,1.372 0.392,3.038 C0.392,4.522 1.4,5.516 2.912,5.824 L4.312,6.118 C5.166,6.3 5.642,6.818 5.642,7.462 C5.642,8.232 5.026,8.834 3.836,8.834 C2.408,8.834 1.666,7.882 1.568,6.846 L0,7.294 C0.154,8.722 1.316,10.346 3.836,10.346 C6.104,10.346 7.35,8.876 7.35,7.336 C7.35,5.936 6.412,4.83 4.662,4.48 L3.234,4.186 C2.464,4.018 2.072,3.542 2.072,2.912 C2.072,2.156 2.772,1.484 3.78,1.484 C5.11,1.484 5.628,2.394 5.726,3.01 L7.238,2.534 Z" id="S"></path>
                <polygon id="E" points="16.771298 10.136 16.771298 8.568 12.319298 8.568 12.319298 5.936 16.351298 5.936 16.351298 4.41 12.319298 4.41 12.319298 1.778 16.771298 1.778 16.771298 0.21 10.639298 0.21 10.639298 10.136"></polygon>
                <path d="M24.694596,10.346 C27.228596,10.346 28.740596,8.736 29.188596,7.056 L27.648596,6.552 C27.312596,7.672 26.360596,8.736 24.694596,8.736 C23.000596,8.736 21.404596,7.504 21.404596,5.18 C21.404596,2.772 23.042596,1.582 24.680596,1.582 C26.346596,1.582 27.270596,2.548 27.564596,3.752 L29.146596,3.22 C28.698596,1.484 27.200596,0 24.680596,0 C22.104596,0 19.682596,1.946 19.682596,5.18 C19.682596,8.414 22.020596,10.346 24.694596,10.346 Z" id="C"></path>
                <path d="M35.977894,10.346 C38.063894,10.346 39.687894,9.072 39.687894,6.678 L39.687894,0.21 L38.007894,0.21 L38.007894,6.58 C38.007894,7.98 37.251894,8.75 35.977894,8.75 C34.717894,8.75 33.947894,7.98 33.947894,6.58 L33.947894,0.21 L32.281894,0.21 L32.281894,6.678 C32.281894,9.072 33.905894,10.346 35.977894,10.346 Z" id="U"></path>
                <path d="M48.507192,10.136 L50.411192,10.136 L48.171192,6.048 C49.557192,5.712 50.411192,4.634 50.411192,3.22 C50.411192,1.54 49.221192,0.21 47.303192,0.21 L43.495192,0.21 L43.495192,10.136 L45.189192,10.136 L45.189192,6.216 L46.421192,6.216 L48.507192,10.136 Z M45.189192,4.732 L45.189192,1.694 L46.995192,1.694 C48.031192,1.694 48.703192,2.296 48.703192,3.22 C48.703192,4.13 48.031192,4.732 46.995192,4.732 L45.189192,4.732 Z" id="R"></path>
                <polygon id="E" points="59.87449 10.136 59.87449 8.568 55.42249 8.568 55.42249 5.936 59.45449 5.936 59.45449 4.41 55.42249 4.41 55.42249 1.778 59.87449 1.778 59.87449 0.21 53.74249 0.21 53.74249 10.136"></polygon>
                <path d="M63.429788,0.21 L63.429788,10.136 L67.097788,10.136 C68.945788,10.136 70.177788,8.988 70.177788,7.392 C70.177788,6.216 69.449788,5.306 68.399788,5.026 C69.253788,4.718 69.869788,3.934 69.869788,2.884 C69.869788,1.33 68.749788,0.21 66.845788,0.21 L63.429788,0.21 Z M65.095788,4.41 L65.095788,1.638 L66.579788,1.638 C67.601788,1.638 68.189788,2.184 68.189788,3.024 C68.189788,3.85 67.601788,4.41 66.621788,4.41 L65.095788,4.41 Z M65.095788,8.708 L65.095788,5.824 L66.859788,5.824 C67.895788,5.824 68.469788,6.426 68.469788,7.28 C68.469788,8.162 67.811788,8.708 66.803788,8.708 L65.095788,8.708 Z" id="B"></path>
                <polygon id="I" points="75.175086 10.136 75.175086 0.21 73.467086 0.21 73.467086 10.136"></polygon>
                <polygon id="N" points="87.424384 10.136 87.424384 0.21 85.744384 0.21 85.744384 7.252 81.236384 0.21 79.094384 0.21 79.094384 10.136 80.774384 10.136 80.774384 2.618 85.674384 10.136"></polygon>
            </g>
        </g>
    </g>
</svg>